<?xml version="1.0" encoding="iso-8859-1"?>
<!-- Generator: Adobe Illustrator 19.0.0, SVG Export Plug-In . SVG Version: 6.00 Build 0)  -->
<svg version="1.1" id="Layer_1" xmlns="http://www.w3.org/2000/svg" xmlns:xlink="http://www.w3.org/1999/xlink" x="0px" y="0px"
	 viewBox="0 0 503.467 503.467" style="enable-background:new 0 0 503.467 503.467;" xml:space="preserve">
<g transform="translate(7 1)">
	<polygon style="fill:#FF7474;" points="206.333,144.067 179.027,116.76 116.733,54.467 167.933,3.267 321.533,3.267 
		372.733,54.467 310.44,116.76 283.133,144.067 244.733,182.467 	"/>
	<path style="fill:#F2EDDA;" d="M310.44,116.76C386.387,144.067,441,216.6,441,301.934C441,410.307,353.107,498.2,244.733,498.2
		c-108.373,0-196.267-87.893-196.267-196.267c0-85.333,54.613-157.867,130.56-185.173l27.307,27.307
		C135.507,161.134,82.6,225.134,82.6,301.934c0,89.6,72.533,162.133,162.133,162.133s162.133-72.533,162.133-162.133
		c0-76.8-52.907-140.8-124.587-157.867L310.44,116.76z"/>
</g>
<path style="fill:#51565F;" d="M251.733,503.467c-110.933,0-200.533-89.6-200.533-200.533c0-71.68,38.4-138.24,101.547-174.08
	c1.707-0.853,4.267-0.853,5.973,1.707c0.853,1.707,0.853,4.267-1.707,5.973c-59.733,34.133-97.28,98.133-97.28,167.253
	c0,105.813,86.187,192,192,192s192-86.187,192-192c0-69.12-37.547-133.12-97.28-167.253c-1.707-0.853-2.56-3.413-1.707-5.973
	c0.853-1.707,3.413-2.56,5.973-1.707c62.293,35.84,101.547,102.4,101.547,174.08C452.267,413.867,362.667,503.467,251.733,503.467z
	 M251.733,469.334c-92.16,0-166.4-74.24-166.4-166.4c0-64,35.84-121.173,93.013-149.333c1.707-0.853,4.267,0,5.973,1.707
	c0.853,1.707,0,4.267-1.707,5.973C128,187.734,94.72,242.347,94.72,302.934c0,87.04,70.827,157.867,157.867,157.867
	s157.867-70.827,157.867-157.867c0-60.587-33.28-114.347-87.893-140.8c-1.707-0.853-2.56-3.413-1.707-5.973
	c0.853-1.707,3.413-2.56,5.973-1.707c57.173,28.16,92.16,85.333,92.16,148.48C418.133,395.094,343.893,469.334,251.733,469.334z
	 M251.733,187.734L251.733,187.734L251.733,187.734h-0.853c-0.853,0-0.853,0-0.853-0.853c0,0-0.853,0-0.853-0.853l0,0l-128-128
	c-1.707-1.707-1.707-4.267,0-5.973l51.2-51.2C173.227,0,174.08,0,175.787,0h153.6c0.853,0,2.56,0.853,3.413,0.853l51.2,51.2
	c1.707,1.707,1.707,4.267,0,5.973l-128,128l0,0l-0.853,0.853c0,0-0.853,0-0.853,0.853
	C252.587,187.734,251.733,187.734,251.733,187.734z M215.04,59.734l36.693,110.08l36.693-110.08H215.04z M297.813,59.734
	l-35.84,107.52L373.76,55.467L326.827,8.534H176.64l-46.933,46.933l111.787,111.787l-35.84-107.52H166.4
	c-2.56,0-4.267-1.707-4.267-4.267S163.84,51.2,166.4,51.2h39.253l7.68-23.04c0.853-2.56,3.413-3.413,5.12-2.56
	c2.56,0.853,3.413,3.413,2.56,5.12l-6.827,19.627h73.387l-6.827-19.627c-0.853-2.56,0.853-4.267,2.56-5.12
	c2.56-0.853,4.267,0.853,5.12,2.56l7.68,23.04h39.253c2.56,0,4.267,1.707,4.267,4.267s-1.707,4.267-4.267,4.267H297.813z"/>
<g>
</g>
<g>
</g>
<g>
</g>
<g>
</g>
<g>
</g>
<g>
</g>
<g>
</g>
<g>
</g>
<g>
</g>
<g>
</g>
<g>
</g>
<g>
</g>
<g>
</g>
<g>
</g>
<g>
</g>
</svg>
