<svg viewBox="0 -15 512.00002 512" xmlns="http://www.w3.org/2000/svg"><g fill="#ff7cb9"><path d="m437.269531 240.09375c-29.710937 0-48.617187 16.804688-60.023437 33.011719-11.101563-16.207031-30.011719-33.011719-59.722656-33.011719-43.816407 0-75.628907 31.511719-75.628907 75.027344 0 56.421875 53.71875 96.636718 135.351563 167.167968 36.316406-31.214843 70.226562-59.125 87.632812-75.632812 24.613282-23.410156 47.121094-50.117188 47.121094-86.730469 0-44.71875-33.011719-79.832031-74.730469-79.832031zm0 0"/><path d="m384.148438 0c-15.90625 0-27.910157 6.902344-36.613282 16.207031-.300781.597657-.601562.898438-.601562.898438-8.402344-9.601563-20.707032-17.105469-37.214844-17.105469-29.410156 0-52.21875 24.308594-52.21875 55.519531 0 38.71875 34.511719 60.925781 89.433594 108.34375 54.921875-47.417969 89.433594-69.925781 89.433594-108.34375.003906-31.210937-22.804688-55.519531-52.21875-55.519531zm0 0"/><path d="m170.765625 90.035156c-25.207031 0-41.714844 13.503906-51.917969 27.308594-10.207031-13.800781-26.710937-27.308594-51.921875-27.308594-37.511719 0-66.925781 31.210938-66.925781 71.425782 0 50.421874 46.519531 81.03125 118.847656 143.457031 72.027344-62.425781 118.847656-93.035157 118.847656-143.457031 0-40.214844-29.414062-71.425782-66.929687-71.425782zm0 0"/></g><path d="m346.9375 163.863281v-146.757812s.296875-.300781.597656-.898438c8.703125-9.304687 20.710938-16.207031 36.613282-16.207031 29.414062 0 52.222656 24.308594 52.222656 55.519531 0 38.417969-34.515625 60.925781-89.433594 108.34375zm0 0" fill="#ff5ca8"/><path d="m512 319.921875c0 36.617187-22.507812 63.324219-47.117188 86.734375-17.410156 16.507812-51.320312 44.417969-87.632812 75.632812v-209.183593c11.402344-16.207031 30.308594-33.011719 60.023438-33.011719 41.714843 0 74.726562 35.113281 74.726562 79.828125zm0 0" fill="#ff5ca8"/><path d="m237.695312 161.460938c0 50.421874-46.820312 81.03125-118.847656 143.457031v-187.574219c10.203125-13.804688 26.707032-27.308594 51.917969-27.308594 37.515625 0 66.929687 31.210938 66.929687 71.425782zm0 0" fill="#ff5ca8"/></svg>