<svg viewBox="0 0 512 512" xmlns="http://www.w3.org/2000/svg"><path d="m136.5 376h-114c-8.285156 0-15-6.71875-15-15v-124c0-8.285156 6.714844-15 15-15s15 6.714844 15 15v109h99c8.285156 0 15 6.714844 15 15 0 8.28125-6.714844 15-15 15zm0 0" fill="#ebe4e2"/><path d="m136.5 346h-29.996094c8.28125 0 15 6.714844 15 15 0 8.28125-6.71875 15-15 15h29.996094c8.285156 0 15-6.71875 15-15 0-8.285156-6.714844-15-15-15zm0 0" fill="#d1c4c4"/><path d="m375.5 376h114c8.285156 0 15-6.71875 15-15v-124c0-8.285156-6.714844-15-15-15s-15 6.714844-15 15v109h-99c-8.285156 0-15 6.714844-15 15 0 8.28125 6.714844 15 15 15zm0 0" fill="#ebe4e2"/><path d="m489.5 222c-8.285156 0-15 6.714844-15 15v109h-.089844v15c0 8.28125-6.714844 15-15 15h30.089844c8.285156 0 15-6.71875 15-15v-124c0-8.285156-6.714844-15-15-15zm0 0" fill="#d1c4c4"/><path d="m241 300.5h30v174h-30zm0 0" fill="#685c79"/><path d="m29.5 376h98v98.5h-98zm0 0" fill="#685c79"/><path d="m97.5 376h30v98.5h-30zm0 0" fill="#594f69"/><path d="m384.5 376h98v98.5h-98zm0 0" fill="#685c79"/><path d="m452.5 376h30v98.5h-30zm0 0" fill="#594f69"/><path d="m313 275h-123c0-29.273438 23.730469-53 53-53h17c29.269531 0 53 23.726562 53 53zm0 0" fill="#ffd659"/><path d="m260 222h-17c-2.203125 0-4.367188.148438-6.496094.410156 26.199219 3.207032 46.5 25.519532 46.5 52.589844h29.996094c0-29.273438-23.730469-53-53-53zm0 0" fill="#ffbd54"/><path d="m264.5 209c0 7.179688-5.820312 13-13 13s-13-5.820312-13-13 5.820312-13 13-13 13 5.820312 13 13zm0 0" fill="#ffbd54"/><path d="m124.765625 10.882812 12.351563 19.027344c1.332031 2.050782 3.582031 3.316406 6.023437 3.378906l22.628906.597657c6.140625.160156 9.433594 7.3125 5.574219 12.101562l-14.226562 17.648438c-1.53125 1.898437-2.03125 4.4375-1.339844 6.78125l6.441406 21.765625c1.75 5.90625-4.015625 11.25-9.753906 9.046875l-21.144532-8.125c-2.277343-.875-4.839843-.570313-6.847656.8125l-18.648437 12.855469c-5.0625 3.488281-11.917969-.359376-11.605469-6.507813l1.160156-22.667969c.125-2.445312-.957031-4.792968-2.894531-6.28125l-17.964844-13.820312c-4.875-3.75-3.347656-11.476563 2.582031-13.070313l21.859376-5.886719c2.355468-.636718 4.25-2.390624 5.0625-4.695312l7.542968-21.394531c2.050782-5.804688 9.847656-6.730469 13.199219-1.566407zm0 0" fill="#ffd659"/><path d="m171.34375 45.988281c3.859375-4.789062.566406-11.941406-5.574219-12.101562l-22.632812-.597657c-2.4375-.0625-4.6875-1.328124-6.019531-3.378906l-12.351563-19.027344c-3.351563-5.164062-11.152344-4.238281-13.199219 1.566407l-.394531 1.125c9.878906 37.886719 31.753906 44.015625 35.363281 85.378906l5.929688 2.277344c5.734375 2.203125 11.5-3.144531 9.753906-9.046875l-6.441406-21.765625c-.695313-2.34375-.195313-4.882813 1.339844-6.78125zm0 0" fill="#ffbd54"/><path d="m404.054688 136.386719 4.007812 17.171875c.433594 1.851562 1.753906 3.375 3.535156 4.078125l16.511719 6.511719c4.480469 1.765624 4.996094 7.859374.871094 10.308593l-15.207031 9.023438c-1.636719.972656-2.683594 2.6875-2.800782 4.578125l-1.078125 17.578125c-.292969 4.765625-5.96875 7.109375-9.609375 3.964843l-13.402344-11.589843c-1.445312-1.25-3.414062-1.71875-5.265624-1.25l-17.179688 4.351562c-4.660156 1.179688-8.683594-3.464843-6.804688-7.855469l6.921876-16.191406c.746093-1.746094.574218-3.746094-.453126-5.351562l-9.539062-14.886719c-2.585938-4.039063.601562-9.253906 5.402344-8.820313l17.679687 1.585938c1.90625.171875 3.769531-.601562 4.984375-2.058594l11.285156-13.550781c3.058594-3.675781 9.054688-2.257813 10.140626 2.402344zm0 0" fill="#ffd659"/><path d="m413.769531 183.480469c-1.636719.96875-2.679687 2.683593-2.800781 4.578125l-1.078125 17.574218c-.289063 4.773438-5.972656 7.117188-9.605469 3.972657l-1.933594-1.679688c5.996094-30.140625-5.359374-44.617187-6.042968-72.011719l1.605468-1.929687c3.0625-3.675781 9.054688-2.253906 10.140626 2.402344l4.007812 17.175781c.4375 1.847656 1.75 3.375 3.539062 4.074219l16.511719 6.511719c4.472657 1.769531 4.992188 7.863281.867188 10.308593zm0 0" fill="#ffbd54"/><path d="m489.5 504.5h-467c-8.285156 0-15-6.71875-15-15 0-8.285156 6.714844-15 15-15h467c8.285156 0 15 6.714844 15 15s-6.714844 15-15 15zm0 0" fill="#ebe4e2"/><path d="m489.5 474.5h-29.996094c8.28125 0 15 6.714844 15 15 0 8.28125-6.71875 15-15 15h29.996094c8.285156 0 15-6.71875 15-15 0-8.285156-6.714844-15-15-15zm0 0" fill="#d1c4c4"/><path d="m124.320312 195.375c0 11.042969-8.953124 20-20 20-11.046874 0-20-8.957031-20-20 0-11.046875 8.953126-20 20-20 11.046876 0 20 8.953125 20 20zm0 0" fill="#51c4f5"/><path d="m369.363281 66.089844c0 11.046875-8.953125 20-20 20-11.042969 0-20-8.953125-20-20 0-11.042969 8.957031-20 20-20 11.046875 0 20 8.957031 20 20zm0 0" fill="#51c4f5"/><path d="m419.085938 346h-320v-50.972656c0-11.0625 8.964843-20.027344 20.023437-20.027344h279.949219c11.058594 0 20.027344 8.964844 20.027344 20.027344zm0 0" fill="#ff2c5c"/><path d="m399.058594 275h-29.996094c11.058594 0 20.023438 8.964844 20.023438 20.023438v50.976562h30v-50.976562c0-11.058594-8.96875-20.023438-20.027344-20.023438zm0 0" fill="#e62753"/><path d="m69.945312 63.445312 17.941407 13.769532-1.15625 22.667968c-.292969 5.726563 2.628906 11.015626 7.632812 13.808594 2.28125 1.273438 4.78125 1.90625 7.273438 1.90625 2.949219 0 5.890625-.890625 8.441406-2.644531l18.554687-12.84375 21.140626 8.121094c5.335937 2.050781 11.253906.914062 15.453124-2.964844 4.207032-3.886719 5.808594-9.714844 4.183594-15.210937l-6.453125-21.710938 14.226563-17.648438c3.589844-4.457031 4.328125-10.453124 1.925781-15.648437-2.398437-5.1875-7.433594-8.507813-13.144531-8.65625l-22.558594-.5625-12.351562-19.027344s0 0 0-.003906c-3.117188-4.800781-8.585938-7.363281-14.265626-6.691406-5.679687.675781-10.390624 4.449219-12.296874 9.851562l-7.480469 21.34375-21.859375 5.882813c-5.515625 1.484375-9.632813 5.890625-10.75 11.5-1.117188 5.613281 1.007812 11.269531 5.542968 14.761718zm30.96875-17.664062c4.738282-1.273438 8.546876-4.804688 10.179688-9.441406l7.484375-21.214844 12.25 18.871094c2.675781 4.121094 7.203125 6.660156 12.113281 6.789062l22.484375.597656-14.148437 17.546876c-3.078125 3.816406-4.085938 8.910156-2.691406 13.617187l6.394531 21.617187-20.96875-8.058593c-4.589844-1.765625-9.746094-1.148438-13.796875 1.640625l-18.496094 12.746094 1.148438-22.511719c.25-4.902344-1.921876-9.617188-5.808594-12.609375l-17.863282-13.742188zm0 0"/><path d="m348.066406 146.871094c-2.636718 4.351562-2.570312 9.714844.179688 14.003906l9.039062 14.105469-6.550781 15.328125c-1.992187 4.660156-1.175781 9.949218 2.125 13.808594 3.320313 3.882812 8.460937 5.515624 13.417969 4.265624l16.347656-4.140624 12.757812 11.03125c2.480469 2.148437 5.566407 3.265624 8.707032 3.265624 1.75 0 3.515625-.347656 5.199218-1.054687 4.679688-1.96875 7.78125-6.335937 8.089844-11.390625l1.023438-16.636719 14.402344-8.554687c4.382812-2.597656 6.851562-7.363282 6.445312-12.433594-.410156-5.089844-3.625-9.421875-8.390625-11.300781l-15.695313-6.191407-3.804687-16.296874c-1.15625-4.945313-4.953125-8.746094-9.90625-9.917969-4.957031-1.175781-10.054687.519531-13.304687 4.421875l-10.710938 12.859375-16.804688-1.507813c-5.117187-.460937-9.917968 1.972656-12.566406 6.335938zm28.90625 10.191406c4.363282.394531 8.625-1.378906 11.417969-4.730469l9.128906-10.957031 3.242188 13.886719c.988281 4.253906 4.011719 7.746093 8.082031 9.351562l13.230469 5.21875-12.128907 7.203125c-3.777343 2.238282-6.191406 6.191406-6.460937 10.566406l-.863281 14.105469-10.832032-9.371093c-2.453124-2.121094-5.566406-3.25-8.738281-3.25-1.09375 0-2.191406.132812-3.273437.40625l-13.882813 3.515624 5.550781-12.992187c1.726563-4.03125 1.339844-8.648437-1.03125-12.347656l-7.609374-11.875zm0 0"/><path d="m512 361v-124c0-12.40625-10.09375-22.5-22.5-22.5s-22.5 10.09375-22.5 22.5v19c0 4.140625 3.355469 7.5 7.5 7.5s7.5-3.359375 7.5-7.5v-19c0-4.136719 3.363281-7.5 7.5-7.5s7.5 3.363281 7.5 7.5v124c0 4.136719-3.363281 7.5-7.5 7.5h-114c-4.136719 0-7.5-3.363281-7.5-7.5s3.363281-7.5 7.5-7.5h99c4.144531 0 7.5-3.359375 7.5-7.5v-58.167969c0-4.144531-3.355469-7.5-7.5-7.5s-7.5 3.355469-7.5 7.5v50.667969h-40.414062v-43.476562c0-15.175782-12.351563-27.523438-27.527344-27.523438h-79.039063c-3.257812-26.222656-23.347656-47.277344-49.09375-51.992188.6875-2.050781 1.074219-4.230468 1.074219-6.507812 0-11.304688-9.195312-20.5-20.5-20.5s-20.5 9.195312-20.5 20.5c0 2.273438.386719 4.457031 1.074219 6.507812-25.746094 4.714844-45.835938 25.769532-49.09375 51.992188h-63.871094c-15.175781 0-27.527344 12.347656-27.527344 27.523438v43.476562h-46.582031v-101.5c0-12.40625-10.09375-22.5-22.5-22.5s-22.5 10.09375-22.5 22.5v124c0 12.238281 9.824219 22.21875 22 22.484375v8.078125c0 4.140625 3.359375 7.5 7.5 7.5s7.5-3.359375 7.5-7.5v-8.0625h83v83.5h-83v-43.0625c0-4.144531-3.359375-7.5-7.5-7.5s-7.5 3.355469-7.5 7.5v43.074219c-12.175781.269531-22 10.25-22 22.488281 0 12.40625 10.09375 22.5 22.5 22.5h467c12.40625 0 22.5-10.09375 22.5-22.5 0-12.238281-9.824219-22.21875-22-22.488281v-83.523438c12.175781-.269531 22-10.25 22-22.488281zm-37 22.5v83.5h-83v-83.5zm-99.5 0h1.5v83.5h-98.5v-113.5h75.789062c-.832031 2.347656-1.289062 4.871094-1.289062 7.5 0 12.40625 10.09375 22.5 22.5 22.5zm-127-30h15v113.5h-15zm3-150c3.03125 0 5.5 2.464844 5.5 5.5 0 3.03125-2.46875 5.5-5.5 5.5s-5.5-2.46875-5.5-5.5c0-3.035156 2.46875-5.5 5.5-5.5zm-8.5 26h17c22.535156 0 41.296875 16.46875 44.882812 38h-106.765624c3.585937-21.53125 22.347656-38 44.882812-38zm-220.5 139c-4.136719 0-7.5-3.363281-7.5-7.5v-124c0-4.136719 3.363281-7.5 7.5-7.5s7.5 3.363281 7.5 7.5v109c0 4.140625 3.359375 7.5 7.5 7.5h99c4.136719 0 7.5 3.363281 7.5 7.5s-3.363281 7.5-7.5 7.5zm112.5 15h1.5c12.40625 0 22.5-10.09375 22.5-22.5 0-2.628906-.457031-5.152344-1.289062-7.5h34.289062c4.140625 0 7.5-3.359375 7.5-7.5 0-4.144531-3.359375-7.5-7.5-7.5h-85.414062v-43.476562c0-6.90625 5.617187-12.523438 12.523437-12.523438h279.949219c6.90625 0 12.527344 5.617188 12.527344 12.523438v43.476562h-187.585938c-4.140625 0-7.5 3.355469-7.5 7.5 0 4.140625 3.359375 7.5 7.5 7.5h9.5v113.5h-98.5zm362 106c0 4.136719-3.363281 7.5-7.5 7.5h-467c-4.136719 0-7.5-3.363281-7.5-7.5s3.363281-7.5 7.5-7.5h467c4.136719 0 7.5 3.363281 7.5 7.5zm0 0"/><path d="m104.320312 167.875c-15.164062 0-27.5 12.335938-27.5 27.5 0 15.160156 12.335938 27.5 27.5 27.5 15.164063 0 27.5-12.339844 27.5-27.5 0-15.164062-12.335937-27.5-27.5-27.5zm0 40c-6.894531 0-12.5-5.609375-12.5-12.5 0-6.894531 5.605469-12.5 12.5-12.5 6.894532 0 12.5 5.605469 12.5 12.5 0 6.890625-5.605468 12.5-12.5 12.5zm0 0"/><path d="m349.363281 93.589844c15.164063 0 27.5-12.335938 27.5-27.5 0-15.160156-12.335937-27.5-27.5-27.5-15.160156 0-27.5 12.339844-27.5 27.5 0 15.164062 12.339844 27.5 27.5 27.5zm0-40c6.894531 0 12.5 5.609375 12.5 12.5 0 6.894531-5.605469 12.5-12.5 12.5-6.890625 0-12.5-5.605469-12.5-12.5 0-6.890625 5.609375-12.5 12.5-12.5zm0 0"/></svg>