<?xml version="1.0" encoding="iso-8859-1"?>
<!-- Generator: Adobe Illustrator 19.0.0, SVG Export Plug-In . SVG Version: 6.00 Build 0)  -->
<svg version="1.1" id="Layer_1" xmlns="http://www.w3.org/2000/svg" xmlns:xlink="http://www.w3.org/1999/xlink" x="0px" y="0px"
	 viewBox="0 0 504.321 504.321" style="enable-background:new 0 0 504.321 504.321;" xml:space="preserve">
<g transform="translate(9 1)">
	<path style="fill:#F2EDDA;" d="M219.268,430.787c0,9.387-1.707,17.92-4.267,25.6c-8.533,24.747-29.867,42.667-55.467,42.667
		c-33.28,0-59.733-30.72-59.733-68.267s26.453-68.267,59.733-68.267c15.36,0,29.867,6.827,40.107,17.92
		C211.588,392.387,219.268,410.307,219.268,430.787z M330.201,362.521c33.28,0,59.733,30.72,59.733,68.267
		s-26.453,68.267-59.733,68.267c-24.747,0-46.933-17.92-55.467-42.667c-2.56-7.68-4.267-16.213-4.267-25.6
		c0-20.48,7.68-38.4,19.627-50.347C300.335,369.347,314.841,362.521,330.201,362.521z"/>
	<path style="fill:#AAB1BA;" d="M330.201,413.721c14.507,0,25.6,11.093,25.6,25.6s-11.093,25.6-25.6,25.6
		c-14.507,0-25.6-11.093-25.6-25.6S315.695,413.721,330.201,413.721z M159.535,413.721c14.507,0,25.6,11.093,25.6,25.6
		s-11.093,25.6-25.6,25.6s-25.6-11.093-25.6-25.6S145.028,413.721,159.535,413.721z"/>
	<path style="fill:#FF7474;" d="M202.201,251.587c17.92,0,33.28,9.387,42.667,23.04c9.387-13.653,24.747-23.04,42.667-23.04
		c1.707,0,3.413,0,5.12,0c5.12,0.853,10.24,1.707,15.36,4.267l0,0c12.8,5.973,23.04,17.067,28.16,30.72
		c0,0.853,0.853,0.853,0.853,1.707c-8.533,4.267-15.36,12.8-15.36,23.04c0,7.68,3.413,14.507,8.533,18.773
		c-10.24,17.92-25.6,32.427-25.6,32.427l-16.213,16.213l-43.52,43.52l-43.52-43.52l-16.213-16.213c0,0-15.36-14.507-25.6-32.427l0,0
		c5.12-4.267,8.533-11.093,8.533-18.773c0-10.24-5.973-19.627-15.36-23.04c0-0.853,0-0.853,0.853-1.707
		c4.267-13.653,14.507-24.747,28.16-30.72l0,0c3.413-1.707,6.827-2.56,10.24-3.413c1.707,0,3.413-0.853,5.12-0.853
		C198.788,251.587,200.494,251.587,202.201,251.587"/>
	<path style="fill:#F2EDDA;" d="M152.708,288.28c8.533,4.267,15.36,12.8,15.36,23.04c0,7.68-3.413,14.507-8.533,18.773l0,0
		c-4.267,4.267-10.24,6.827-17.067,6.827c-14.507,0-25.6-11.093-25.6-25.6s11.093-25.6,25.6-25.6
		C146.735,285.721,150.148,286.574,152.708,288.28z M347.268,285.721c14.507,0,25.6,11.093,25.6,25.6s-11.093,25.6-25.6,25.6
		c-6.827,0-12.8-2.56-17.067-6.827c-5.12-4.267-8.533-11.093-8.533-18.773c0-10.24,5.973-19.627,15.36-23.04
		C339.588,286.574,343.855,285.721,347.268,285.721z"/>
	<path style="fill:#FFD0A1;" d="M244.868,274.627c-9.387-13.653-24.747-23.04-42.667-23.04c-1.707,0-3.413,0-5.12,0
		s-3.413,0.853-5.12,0.853c-3.413,0.853-6.827,1.707-10.24,3.413c-8.533-11.093-13.653-23.893-13.653-38.4
		c0-37.547,34.133-68.267,76.8-68.267s76.8,30.72,76.8,68.267c0,14.507-5.12,27.307-13.653,38.4c-5.12-2.56-10.24-3.413-15.36-4.267
		c-1.707,0-3.413,0-5.12,0C269.614,251.587,254.255,260.974,244.868,274.627"/>
	<g>
		<path style="fill:#F2EDDA;" d="M219.268,430.787c0-20.48-7.68-38.4-19.627-50.347l1.707-1.707l43.52,43.52l43.52-43.52
			l1.707,1.707c-11.947,12.8-19.627,30.72-19.627,50.347c0,8.533,1.707,17.92,4.267,25.6h-0.853c0,0-7.68,8.533-29.013,8.533
			s-29.867-8.533-29.867-8.533h-0.853C217.561,448.707,219.268,440.174,219.268,430.787"/>
		<path style="fill:#F2EDDA;" d="M181.721,255.854c-12.8,5.973-23.04,17.067-28.16,30.72h-0.853
			c-11.947-5.973-23.893-23.04-23.893-23.04c-18.773-22.187-29.867-50.347-29.867-80.213c0-26.453,5.973-52.907,17.067-76.8
			c-28.16,0-51.2-23.04-51.2-51.2s23.04-51.2,51.2-51.2c25.6,0,46.08,17.92,49.493,41.813c21.333-15.36,47.787-24.747,78.507-24.747
			c29.867,0,56.32,9.387,77.653,24.747c4.267-23.893,24.747-41.813,50.347-41.813c28.16,0,51.2,23.04,51.2,51.2
			s-23.04,51.2-51.2,51.2c11.947,23.893,17.067,50.347,17.067,76.8c0,29.867-11.093,58.027-29.867,80.213
			c0,0-11.093,14.507-23.893,22.187l0,0c-4.267-13.653-14.507-24.747-28.16-30.72c8.533-11.093,13.653-23.893,13.653-38.4
			c0-37.547-34.133-68.267-76.8-68.267c-42.667,0-76.8,30.72-76.8,68.267C168.068,231.961,173.188,244.761,181.721,255.854"/>
	</g>
	<path style="fill:#AAB1BA;" d="M261.935,183.321c0,8.533-8.533,17.067-17.067,17.067c-8.533,0-17.067-8.533-17.067-17.067
		C227.801,174.787,261.935,174.787,261.935,183.321"/>
</g>
<path style="fill:#51565F;" d="M339.201,504.321c-24.747,0-46.933-16.213-57.173-40.96c-5.12,2.56-13.653,6.827-28.16,6.827
	c-13.653,0-23.04-3.413-28.16-6.827c-10.24,23.893-32.427,40.96-57.173,40.96c-34.987,0-64-32.427-64-72.533
	s29.013-72.533,64-72.533c5.973,0,12.8,0.853,17.92,3.413c-5.12-5.12-12.8-13.653-19.627-24.747
	c-4.267,2.56-10.24,4.267-16.213,4.267c-16.213,0-29.867-13.653-29.867-29.867s13.653-29.867,29.867-29.867
	c2.56,0,5.12,0,7.68,0.853c8.533-21.333,29.013-34.987,52.053-34.987c16.213,0,32.427,7.68,42.667,19.627
	c10.24-12.8,26.453-19.627,42.667-19.627c23.04,0,43.52,14.507,52.053,34.987c2.56-0.853,5.12-0.853,7.68-0.853
	c16.213,0,29.867,13.653,29.867,29.867s-13.653,29.867-29.867,29.867c-5.973,0-11.093-1.707-15.36-4.267
	c-6.827,11.093-14.507,19.627-19.627,24.747c5.973-1.707,11.947-2.56,17.92-2.56c34.987,0,64,32.427,64,72.533
	S374.188,504.321,339.201,504.321z M339.201,367.787c-30.72,0-55.467,29.013-55.467,64s24.747,64,55.467,64s55.467-29.013,55.467-64
	S369.921,367.787,339.201,367.787z M168.535,367.787c-30.72,0-55.467,29.013-55.467,64s24.747,64,55.467,64s55.467-29.013,55.467-64
	S199.255,367.787,168.535,367.787z M229.121,455.68c3.413,1.707,11.093,5.973,24.747,5.973c14.507,0,22.187-4.267,24.747-5.973
	c-2.56-7.68-3.413-15.36-3.413-23.893c0-10.24,1.707-20.48,5.12-29.013l-23.893,23.893c-1.707,1.707-4.267,1.707-5.973,0
	l-23.893-23.893c3.413,8.533,5.12,18.773,5.12,29.013C232.535,440.321,231.681,448.001,229.121,455.68z M173.655,331.947
	c9.387,16.213,23.04,28.16,23.04,28.16l57.173,57.173l56.32-56.32c0,0,13.653-12.8,23.04-28.16c-4.267-5.12-7.68-11.947-7.68-19.627
	c0-10.24,5.973-19.627,13.653-25.6c-6.827-17.92-24.747-29.867-43.52-29.867c-15.36,0-30.72,7.68-39.253,21.333
	c-1.707,2.56-5.12,2.56-6.827,0c-8.533-12.8-23.04-21.333-39.253-21.333c-19.627,0-36.693,11.947-43.52,29.867
	c8.533,5.12,13.653,14.507,13.653,25.6C181.335,320.001,178.774,326.827,173.655,331.947z M342.614,328.534
	c3.413,3.413,8.533,5.12,13.653,5.12c11.947,0,21.333-9.387,21.333-21.333s-9.387-21.333-21.333-21.333
	c-2.56,0-5.973,0.853-8.533,1.707c0,0-0.853,0-0.853,0.853l0,0c-6.827,3.413-11.947,11.093-11.947,18.773
	c0,5.973,2.56,11.947,6.827,15.36C341.761,327.68,342.614,328.534,342.614,328.534z M151.468,290.987
	c-11.947,0-21.333,9.387-21.333,21.333s9.387,21.333,21.333,21.333c5.12,0,10.24-1.707,13.653-5.12l0.853-0.853
	c4.267-4.267,6.827-9.387,6.827-15.36c0-8.533-5.12-15.36-11.947-18.773l0,0c0,0-0.853,0-0.853-0.853
	C157.441,291.841,154.028,290.987,151.468,290.987z M339.201,470.187c-16.213,0-29.867-13.653-29.867-29.867
	s13.653-29.867,29.867-29.867c16.213,0,29.867,13.653,29.867,29.867S355.414,470.187,339.201,470.187z M339.201,418.987
	c-11.947,0-21.333,9.387-21.333,21.333c0,11.947,9.387,21.333,21.333,21.333c11.947,0,21.333-9.387,21.333-21.333
	C360.535,428.374,351.148,418.987,339.201,418.987z M168.535,470.187c-16.213,0-29.867-13.653-29.867-29.867
	s13.653-29.867,29.867-29.867s29.867,13.653,29.867,29.867S184.748,470.187,168.535,470.187z M168.535,418.987
	c-11.947,0-21.333,9.387-21.333,21.333c0,11.947,9.387,21.333,21.333,21.333s21.333-9.387,21.333-21.333
	C189.868,428.374,180.481,418.987,168.535,418.987z M369.068,268.801c-0.853,0-1.707,0-2.56-0.853c-1.707-1.707-1.707-4.267,0-5.973
	c18.773-21.333,29.013-49.493,29.013-77.653c0-26.453-5.973-52.053-17.067-75.093c-0.853-1.707-0.853-2.56,0-4.267
	c0.853-0.853,2.56-1.707,3.413-1.707c25.6,0,46.933-21.333,46.933-46.933S407.468,9.387,381.868,9.387
	c-22.187,0-40.96,14.507-45.227,34.987C348.588,52.907,358.828,64,368.214,76.8c1.707,1.707,0.853,4.267-0.853,5.973
	c-1.707,1.707-4.267,0.853-5.973-0.853c-26.453-35.84-64.853-55.467-107.52-55.467c-28.16,0-53.76,7.68-75.947,23.893l0,0
	c-11.947,8.533-22.187,18.773-31.573,31.573c-1.707,1.707-4.267,2.56-5.973,0.853c-1.707-1.707-2.56-4.267-0.853-5.973
	c9.387-11.947,19.627-23.04,31.573-31.573c-5.12-21.333-23.04-35.84-45.227-35.84c-25.6,0-46.933,21.333-46.933,46.933
	s21.333,46.933,46.933,46.933c1.707,0,2.56,0.853,3.413,1.707c0.853,0.853,0.853,2.56,0,4.267
	c-11.093,23.04-17.067,48.64-17.067,75.093c0,28.16,10.24,55.467,28.16,76.8c1.707,1.707,1.707,4.267-0.853,5.973
	c-1.707,1.707-4.267,1.707-5.973-0.853c-19.627-23.04-30.72-52.053-30.72-82.773c0-25.6,5.12-50.347,14.507-72.533
	c-27.307-3.413-48.64-26.453-48.64-55.467C68.694,24.747,93.44,0,124.16,0c24.747,0,46.08,15.36,52.907,39.253
	c22.187-14.507,47.787-22.187,75.093-22.187s52.907,7.68,75.093,21.333C334.08,15.36,355.414,0,380.16,0
	c30.72,0,55.467,24.747,55.467,55.467c0,28.16-21.333,52.053-48.64,55.467c10.24,23.04,14.507,46.933,14.507,72.533
	c0,30.72-11.093,60.587-31.573,83.627C370.775,268.801,369.921,268.801,369.068,268.801z M177.921,231.254
	c-1.707,0-3.413-1.707-4.267-3.413c-0.853-3.413-0.853-5.973-0.853-9.387c0-34.133,34.987-72.533,81.067-72.533
	s81.067,38.4,81.067,72.533c0,3.413,0,5.973-0.853,9.387c-0.853,2.56-2.56,3.413-5.12,3.413c-2.56-0.853-4.267-2.56-3.413-5.12
	c0.853-2.56,0.853-5.12,0.853-7.68c0-29.867-31.573-64-72.533-64s-72.533,34.133-72.533,64c0,2.56,0,5.12,0.853,7.68
	C182.188,228.694,181.335,231.254,177.921,231.254C178.774,231.254,177.921,231.254,177.921,231.254z M280.321,231.254
	c-1.707,0-2.56,0-4.267,0c-10.24-2.56-17.92-11.947-22.187-19.627c-4.267,7.68-11.947,17.067-22.187,19.627
	c-7.68,1.707-15.36-1.707-23.04-9.387c-1.707-1.707-1.707-4.267,0-5.973c1.707-1.707,4.267-1.707,5.973,0
	c5.12,5.12,11.093,7.68,15.36,6.827c7.68-1.707,14.507-11.093,17.92-17.92c-8.533-2.56-15.36-11.093-15.36-20.48
	c0-7.68,11.093-11.093,21.333-11.093c10.24,0,21.333,2.56,21.333,11.093c0,8.533-6.827,17.067-15.36,20.48
	c3.413,6.827,10.24,16.213,17.92,17.92c5.12,0.853,10.24-0.853,15.36-6.827c1.707-1.707,4.267-1.707,5.973,0
	c1.707,1.707,1.707,4.267,0,5.973C293.121,227.841,287.148,231.254,280.321,231.254z M241.068,184.321c0,5.973,6.827,12.8,12.8,12.8
	c5.973,0,12.8-6.827,12.8-12.8c-0.853,0-5.12-2.56-12.8-2.56C246.188,182.614,241.921,183.467,241.068,184.321z M309.335,128.854
	c-5.12,0-8.533-3.413-8.533-8.533c0-5.12,3.413-8.533,8.533-8.533c5.12,0,8.533,3.413,8.533,8.533
	C317.868,125.441,314.455,128.854,309.335,128.854z M198.401,128.854c-5.12,0-8.533-3.413-8.533-8.533
	c0-5.12,3.413-8.533,8.533-8.533s8.533,3.413,8.533,8.533C206.935,125.441,203.521,128.854,198.401,128.854z M113.921,72.534
	c-0.853,0-2.56,0-3.413-0.853c-4.267-4.267-5.973-9.387-5.973-15.36s2.56-11.093,5.973-15.36c8.533-8.533,22.187-8.533,29.867,0
	c1.707,1.707,1.707,4.267,0,5.973s-4.267,1.707-5.973,0c-5.12-5.12-12.8-5.12-17.92,0c-2.56,2.56-3.413,5.973-3.413,9.387
	c0,3.413,1.707,6.827,3.413,9.387c1.707,1.707,1.707,4.267,0,5.973C115.628,72.534,114.775,72.534,113.921,72.534z M393.814,72.534
	c-0.853,0-2.56,0-3.413-0.853c-1.707-1.707-1.707-4.267,0-5.973c2.56-2.56,3.413-5.973,3.413-9.387s-1.707-6.827-3.413-9.387
	c-5.12-5.12-12.8-5.12-17.92,0c-1.707,1.707-4.267,1.707-5.973,0c-1.707-1.707-1.707-4.267,0-5.973
	c8.533-8.533,22.187-8.533,29.867,0c4.267,4.267,5.973,9.387,5.973,15.36s-2.56,11.093-5.973,15.36
	C396.375,72.534,394.668,72.534,393.814,72.534z"/>
<g>
</g>
<g>
</g>
<g>
</g>
<g>
</g>
<g>
</g>
<g>
</g>
<g>
</g>
<g>
</g>
<g>
</g>
<g>
</g>
<g>
</g>
<g>
</g>
<g>
</g>
<g>
</g>
<g>
</g>
</svg>
