<?xml version="1.0" encoding="iso-8859-1"?>
<!-- Generator: Adobe Illustrator 19.0.0, SVG Export Plug-In . SVG Version: 6.00 Build 0)  -->
<svg version="1.1" id="Capa_1" xmlns="http://www.w3.org/2000/svg" xmlns:xlink="http://www.w3.org/1999/xlink" x="0px" y="0px"
	 viewBox="0 0 512 512" style="enable-background:new 0 0 512 512;" xml:space="preserve">
<path style="fill:#FFA0BE;" d="M512,256c0,47.56-13.034,92.093-35.722,130.198c-6.658,11.183-14.147,21.824-22.397,31.811
	c-11.006,13.357-23.343,25.569-36.814,36.44c-6.137,4.952-12.504,9.622-19.089,14.002c-40.351,26.797-88.764,42.411-140.839,42.411
	c-109.445,0-202.776-68.989-238.883-165.847c-3.485-9.331-6.429-18.912-8.801-28.721C4.764,296.955,2.278,276.774,2.278,256
	c0-44.554,11.432-86.455,31.54-122.895c8.228-14.938,17.923-28.961,28.888-41.88C109.455,36.112,179.214,1.139,257.139,1.139
	C397.895,1.139,512,115.244,512,256z"/>
<path style="fill:#F91E43;" d="M277.685,404.617c0,0,52.18-41.027,148.28-123.289c104.129-89.135,119.855-217.681,13.329-268.237
	c-98.298-46.65-161.609,58.312-161.609,58.312S214.374-33.559,116.076,13.091c-106.527,50.555-90.8,179.103,13.329,268.237
	C225.505,363.59,277.685,404.617,277.685,404.617z"/>
<g>
	<path style="fill:#823264;" d="M96.525,330.565c0,7.001-3.069,14.449-10.507,14.449H18.256c-3.485-9.331-6.429-18.912-8.801-28.721
		c0.614-0.114,1.259-0.166,1.924-0.166h22.438V51.248H11.38C3.943,51.248,0,43.8,0,36.799C0,29.361,3.943,22.35,11.38,22.35h74.638
		c7.438,0,10.507,7.011,10.507,14.449c0,7.001-3.069,14.449-10.507,14.449H62.706v264.879h23.312
		C93.456,316.126,96.525,323.127,96.525,330.565z"/>
	<path style="fill:#823264;" d="M232.683,320.256c-3.589,0-5.701,1.685-7.396,5.066l-34.651,66.971l-34.859-66.971
		c-1.893-3.381-3.797-5.066-7.386-5.066c-5.919,0-14.158,3.797-14.158,9.289c0,0.843,0.208,1.904,0.843,3.173l43.732,78.799
		c0.208,0.635,0.635,1.477,0.635,2.33v53.448c0,4.858,5.493,7.396,11.193,7.396c5.493,0,11.203-2.538,11.203-7.396v-53.448
		c0-0.853,0.208-1.696,0.416-2.33l43.732-78.799c0.635-1.269,0.635-2.33,0.635-3.173
		C246.622,324.053,238.602,320.256,232.683,320.256z"/>
	<path style="fill:#823264;" d="M306.624,320.256c-26.828,0-47.321,12.878-47.321,47.113v61.479
		c0,34.224,20.493,47.113,47.321,47.113c26.62,0,47.539-12.889,47.539-47.113v-61.479
		C354.163,333.135,333.244,320.256,306.624,320.256z M331.766,428.848c0,18.589-9.508,27.255-25.143,27.255
		c-15.843,0-24.924-8.665-24.924-27.255v-61.479c0-18.6,9.081-27.255,24.924-27.255c15.635,0,25.143,8.655,25.143,27.255V428.848z"
		/>
	<path style="fill:#823264;" d="M465.074,320.256c-5.701,0-11.193,2.112-11.193,7.178v90.574
		c8.249-9.986,15.739-20.628,22.397-31.811v-58.764C476.278,322.368,470.567,320.256,465.074,320.256z M402.118,428.848V327.434
		c0-5.066-5.701-7.178-11.203-7.178c-5.701,0-11.193,2.112-11.193,7.178v101.414c0,19.796,7.063,32.445,18.256,39.602
		c6.585-4.379,12.951-9.05,19.089-14.002C407.569,451.13,402.118,442.777,402.118,428.848z"/>
</g>
<g>
</g>
<g>
</g>
<g>
</g>
<g>
</g>
<g>
</g>
<g>
</g>
<g>
</g>
<g>
</g>
<g>
</g>
<g>
</g>
<g>
</g>
<g>
</g>
<g>
</g>
<g>
</g>
<g>
</g>
</svg>
